<svg width="64" height="11" viewBox="0 0 64 11" fill="none" xmlns="http://www.w3.org/2000/svg">
<path d="M5.404 10.14C4.72267 10.14 4.088 10.0093 3.5 9.748C2.92133 9.48667 2.41267 9.132 1.974 8.684C1.526 8.236 1.176 7.71333 0.924 7.116C0.681333 6.50933 0.56 5.83733 0.56 5.1C0.56 4.39067 0.686 3.728 0.938 3.112C1.19 2.496 1.53533 1.964 1.974 1.516C2.41267 1.068 2.92133 0.713333 3.5 0.451999C4.088 0.190666 4.72267 0.0599995 5.404 0.0599995C6.08533 0.0599995 6.72933 0.2 7.336 0.48C7.952 0.76 8.512 1.18467 9.016 1.754L8.134 2.482C7.33133 1.60467 6.42133 1.166 5.404 1.166C4.88133 1.166 4.40067 1.26867 3.962 1.474C3.52333 1.67933 3.13133 1.95933 2.786 2.314C2.45 2.66867 2.184 3.084 1.988 3.56C1.80133 4.02667 1.708 4.54 1.708 5.1C1.708 5.66933 1.80133 6.192 1.988 6.668C2.184 7.13467 2.45 7.54067 2.786 7.886C3.13133 8.24067 3.52333 8.52067 3.962 8.726C4.40067 8.93133 4.88133 9.034 5.404 9.034C6.42133 9.034 7.33133 8.59533 8.134 7.718L9.016 8.446C8.512 9.01533 7.952 9.44 7.336 9.72C6.72933 10 6.08533 10.14 5.404 10.14ZM12.2896 10.07C11.6363 10.0513 11.0903 9.86933 10.6516 9.524C10.2129 9.16933 9.99359 8.656 9.99359 7.984C9.99359 7.284 10.1989 6.738 10.6096 6.346C11.0203 5.94467 11.5803 5.688 12.2896 5.576C12.9989 5.464 13.7923 5.48733 14.6696 5.646V5.142C14.6696 4.81533 14.5669 4.55867 14.3616 4.372C14.1563 4.176 13.8903 4.04533 13.5636 3.98C13.2463 3.91467 12.9103 3.91 12.5556 3.966C12.2103 4.01267 11.8836 4.12 11.5756 4.288C11.2676 4.44667 11.0296 4.65667 10.8616 4.918L10.1756 4.19C10.4649 3.83533 10.8149 3.56 11.2256 3.364C11.6456 3.168 12.0796 3.042 12.5276 2.986C12.9756 2.93 13.4096 2.944 13.8296 3.028C14.2496 3.112 14.6183 3.266 14.9356 3.49C15.2436 3.67667 15.4536 3.91933 15.5656 4.218C15.6869 4.50733 15.7569 4.84333 15.7756 5.226C15.7943 5.60867 15.8036 6.01933 15.8036 6.458V10H14.6836V9.342C14.3383 9.594 13.9556 9.78067 13.5356 9.902C13.1156 10.0233 12.7003 10.0793 12.2896 10.07ZM14.6556 8.348V6.514C13.5449 6.374 12.6629 6.41133 12.0096 6.626C11.3563 6.84067 11.0296 7.28867 11.0296 7.97C11.0296 8.26867 11.1136 8.502 11.2816 8.67C11.4589 8.838 11.6829 8.95 11.9536 9.006C12.2336 9.062 12.5369 9.07133 12.8636 9.034C13.1903 8.99667 13.5123 8.91733 13.8296 8.796C14.1469 8.67467 14.4223 8.52533 14.6556 8.348ZM18.308 10H17.202V0.199999H18.308V10ZM26.1719 6.836H20.7259C20.7446 7.44267 20.9079 7.92333 21.2159 8.278C21.5239 8.63267 21.9159 8.866 22.3919 8.978C22.8679 9.09 23.3766 9.08067 23.9179 8.95C24.4592 8.81933 24.9726 8.572 25.4579 8.208L26.0459 9.076C25.5886 9.43067 25.1126 9.692 24.6179 9.86C24.1232 10.028 23.6286 10.1167 23.1339 10.126C21.9672 10.154 21.0759 9.832 20.4599 9.16C19.8439 8.47867 19.5359 7.53133 19.5359 6.318C19.5359 5.282 19.8252 4.456 20.4039 3.84C20.9919 3.224 21.8412 2.92067 22.9519 2.93C23.6799 2.93 24.3006 3.07933 24.8139 3.378C25.3272 3.67667 25.7052 4.12 25.9479 4.708C26.0692 4.99733 26.1439 5.31933 26.1719 5.674C26.2092 6.02867 26.2092 6.416 26.1719 6.836ZM23.0079 3.966C22.3732 3.966 21.8319 4.134 21.3839 4.47C20.9452 4.79667 20.7259 5.28667 20.7259 5.94H25.1779C25.1779 5.324 24.9819 4.84333 24.5899 4.498C24.2072 4.14333 23.6799 3.966 23.0079 3.966ZM33.6972 10H32.5912V5.842C32.5912 5.394 32.4932 5.03467 32.2972 4.764C32.1106 4.49333 31.8679 4.302 31.5692 4.19C31.2799 4.06867 30.9766 4.008 30.6592 4.008C30.3512 4.008 30.0432 4.07333 29.7352 4.204C29.4366 4.33467 29.1846 4.53533 28.9792 4.806C28.7739 5.07667 28.6712 5.422 28.6712 5.842V10H27.5652V3H28.6712V3.756C28.8859 3.46667 29.1799 3.25667 29.5532 3.126C29.9266 2.986 30.3139 2.916 30.7152 2.916C31.2566 2.916 31.7512 3.028 32.1992 3.252C32.6566 3.476 33.0206 3.80733 33.2912 4.246C33.5619 4.67533 33.6972 5.20733 33.6972 5.842V10ZM37.4117 9.986C36.8517 9.92067 36.3757 9.72467 35.9837 9.398C35.6011 9.07133 35.3117 8.656 35.1157 8.152C34.9197 7.63867 34.8217 7.06467 34.8217 6.43C34.8217 5.74867 34.9431 5.14667 35.1857 4.624C35.4377 4.092 35.7971 3.67667 36.2637 3.378C36.7397 3.07 37.3137 2.916 37.9857 2.916C38.2564 2.916 38.5364 2.93467 38.8257 2.972C39.1244 3.00933 39.4464 3.11667 39.7917 3.294V0.199999H40.8977V10H39.7917V9.342C39.5304 9.566 39.1851 9.748 38.7557 9.888C38.3264 10.028 37.8784 10.0607 37.4117 9.986ZM39.7917 8.404V4.344C39.1197 4.064 38.4897 3.95667 37.9017 4.022C37.3231 4.08733 36.8517 4.32533 36.4877 4.736C36.1237 5.13733 35.9417 5.702 35.9417 6.43C35.9417 7.018 36.0491 7.51267 36.2637 7.914C36.4877 8.306 36.7864 8.59533 37.1597 8.782C37.5331 8.96867 37.9437 9.034 38.3917 8.978C38.8491 8.922 39.3157 8.73067 39.7917 8.404ZM44.4595 10.07C43.8062 10.0513 43.2602 9.86933 42.8215 9.524C42.3828 9.16933 42.1635 8.656 42.1635 7.984C42.1635 7.284 42.3688 6.738 42.7795 6.346C43.1902 5.94467 43.7502 5.688 44.4595 5.576C45.1688 5.464 45.9622 5.48733 46.8395 5.646V5.142C46.8395 4.81533 46.7368 4.55867 46.5315 4.372C46.3262 4.176 46.0602 4.04533 45.7335 3.98C45.4162 3.91467 45.0802 3.91 44.7255 3.966C44.3802 4.01267 44.0535 4.12 43.7455 4.288C43.4375 4.44667 43.1995 4.65667 43.0315 4.918L42.3455 4.19C42.6348 3.83533 42.9848 3.56 43.3955 3.364C43.8155 3.168 44.2495 3.042 44.6975 2.986C45.1455 2.93 45.5795 2.944 45.9995 3.028C46.4195 3.112 46.7882 3.266 47.1055 3.49C47.4135 3.67667 47.6235 3.91933 47.7355 4.218C47.8568 4.50733 47.9268 4.84333 47.9455 5.226C47.9642 5.60867 47.9735 6.01933 47.9735 6.458V10H46.8535V9.342C46.5082 9.594 46.1255 9.78067 45.7055 9.902C45.2855 10.0233 44.8702 10.0793 44.4595 10.07ZM46.8255 8.348V6.514C45.7148 6.374 44.8328 6.41133 44.1795 6.626C43.5262 6.84067 43.1995 7.28867 43.1995 7.97C43.1995 8.26867 43.2835 8.502 43.4515 8.67C43.6288 8.838 43.8528 8.95 44.1235 9.006C44.4035 9.062 44.7068 9.07133 45.0335 9.034C45.3602 8.99667 45.6822 8.91733 45.9995 8.796C46.3168 8.67467 46.5922 8.52533 46.8255 8.348ZM49.3719 10V3.084H50.4779V3.728C50.7859 3.38267 51.1639 3.17267 51.6119 3.098C52.0692 3.02333 52.6432 3.084 53.3339 3.28L52.8159 4.26C52.3959 4.11067 52.0039 4.08733 51.6399 4.19C51.2852 4.28333 51.0005 4.45133 50.7859 4.694C50.5712 4.93667 50.4685 5.198 50.4779 5.478V10H49.3719ZM54.9264 2.076C54.721 2.076 54.5437 2.006 54.3944 1.866C54.2544 1.71667 54.1844 1.53933 54.1844 1.334C54.1844 1.12867 54.2544 0.956 54.3944 0.816C54.5437 0.666666 54.721 0.591999 54.9264 0.591999C55.1317 0.591999 55.3044 0.666666 55.4444 0.816C55.5937 0.956 55.6684 1.12867 55.6684 1.334C55.6684 1.53933 55.5937 1.71667 55.4444 1.866C55.3044 2.006 55.1317 2.076 54.9264 2.076ZM55.4584 10H54.4084V3H55.4584V10ZM60.0437 10.168C59.3717 10.168 58.779 10.0233 58.2657 9.734C57.7617 9.44467 57.365 9.03867 57.0757 8.516C56.7957 7.984 56.6557 7.36333 56.6557 6.654C56.6557 5.83267 56.805 5.14667 57.1037 4.596C57.4024 4.04533 57.8037 3.63 58.3077 3.35C58.821 3.07 59.3997 2.93 60.0437 2.93C60.7064 2.93 61.2897 3.07 61.7937 3.35C62.307 3.63 62.7084 4.04533 62.9977 4.596C63.287 5.14667 63.4317 5.83267 63.4317 6.654C63.4317 7.36333 63.287 7.984 62.9977 8.516C62.7084 9.03867 62.307 9.44467 61.7937 9.734C61.2897 10.0233 60.7064 10.168 60.0437 10.168ZM60.0437 9.104C60.5384 9.104 60.9584 8.99667 61.3037 8.782C61.649 8.558 61.9104 8.25933 62.0877 7.886C62.265 7.51267 62.3537 7.102 62.3537 6.654C62.3537 5.88867 62.153 5.25867 61.7517 4.764C61.3597 4.26 60.7904 4.008 60.0437 4.008C59.2877 4.008 58.7137 4.26 58.3217 4.764C57.9297 5.268 57.7337 5.898 57.7337 6.654C57.7337 7.11133 57.8177 7.52667 57.9857 7.9C58.163 8.264 58.4244 8.558 58.7697 8.782C59.115 8.99667 59.5397 9.104 60.0437 9.104Z" fill="black"/>
</svg>
