<svg width="360" height="800" viewBox="0 0 360 800" fill="none" xmlns="http://www.w3.org/2000/svg">
<g clip-path="url(#clip0_104_13)">
<rect width="360" height="800" fill="white"/>
<g clip-path="url(#clip1_104_13)">
<path d="M375 0H-17V800H375V0Z" fill="#007BA4"/>
<g clip-path="url(#clip2_104_13)">
<path d="M275.055 534H83.9448C71.2906 534 61 523.685 61 511C61 498.315 71.2906 488 83.9448 488H275.055C287.709 488 298 498.315 298 511C298 523.685 287.695 534 275.055 534ZM83.9448 490.586C72.7174 490.586 63.5798 499.746 63.5798 511C63.5798 522.254 72.7174 531.414 83.9448 531.414H275.055C286.283 531.414 295.42 522.254 295.42 511C295.42 499.746 286.283 490.586 275.055 490.586H83.9448Z" fill="#71DFE2"/>
<path d="M92.1023 520.564H83.3106C81.6388 520.564 80.284 519.206 80.284 517.53V510.191C80.284 508.515 81.6388 507.157 83.3106 507.157H92.1023C93.7741 507.157 95.1289 508.515 95.1289 510.191V517.53C95.1145 519.206 93.7597 520.564 92.1023 520.564ZM83.2962 509.758C83.0512 509.758 82.8494 509.96 82.8494 510.205V517.545C82.8494 517.79 83.0512 517.993 83.2962 517.993H92.0879C92.3329 517.993 92.5347 517.79 92.5347 517.545V510.205C92.5347 509.96 92.3329 509.758 92.0879 509.758H83.2962Z" fill="#71DFE2"/>
<path d="M83.9448 508.472H81.3649V505.683C81.3649 502.173 84.2042 499.327 87.7065 499.327C91.2087 499.327 94.048 502.187 94.048 505.683H91.4681C91.4681 503.603 89.7819 501.913 87.7065 501.913C85.631 501.913 83.9448 503.603 83.9448 505.683V508.472Z" fill="#71DFE2"/>
<path d="M155.08 510H154.023C153.96 509.696 153.851 509.429 153.695 509.199C153.541 508.969 153.354 508.776 153.132 508.619C152.913 508.46 152.67 508.341 152.403 508.261C152.136 508.182 151.858 508.142 151.568 508.142C151.04 508.142 150.561 508.276 150.132 508.543C149.706 508.81 149.366 509.203 149.114 509.723C148.864 510.243 148.739 510.881 148.739 511.636C148.739 512.392 148.864 513.03 149.114 513.55C149.366 514.07 149.706 514.463 150.132 514.73C150.561 514.997 151.04 515.131 151.568 515.131C151.858 515.131 152.136 515.091 152.403 515.011C152.67 514.932 152.913 514.814 153.132 514.658C153.354 514.499 153.541 514.304 153.695 514.074C153.851 513.841 153.96 513.574 154.023 513.273H155.08C155 513.719 154.855 514.118 154.645 514.47C154.435 514.822 154.173 515.122 153.861 515.369C153.548 515.614 153.197 515.8 152.808 515.928C152.422 516.055 152.009 516.119 151.568 516.119C150.824 516.119 150.162 515.938 149.582 515.574C149.003 515.21 148.547 514.693 148.214 514.023C147.882 513.352 147.716 512.557 147.716 511.636C147.716 510.716 147.882 509.92 148.214 509.25C148.547 508.58 149.003 508.062 149.582 507.699C150.162 507.335 150.824 507.153 151.568 507.153C152.009 507.153 152.422 507.217 152.808 507.345C153.197 507.473 153.548 507.661 153.861 507.908C154.173 508.152 154.435 508.45 154.645 508.803C154.855 509.152 155 509.551 155.08 510ZM159.31 516.136C158.719 516.136 158.201 515.996 157.755 515.714C157.311 515.433 156.965 515.04 156.715 514.534C156.468 514.028 156.344 513.437 156.344 512.761C156.344 512.08 156.468 511.484 156.715 510.976C156.965 510.467 157.311 510.072 157.755 509.791C158.201 509.51 158.719 509.369 159.31 509.369C159.901 509.369 160.418 509.51 160.861 509.791C161.307 510.072 161.654 510.467 161.901 510.976C162.151 511.484 162.276 512.08 162.276 512.761C162.276 513.437 162.151 514.028 161.901 514.534C161.654 515.04 161.307 515.433 160.861 515.714C160.418 515.996 159.901 516.136 159.31 516.136ZM159.31 515.233C159.759 515.233 160.128 515.118 160.418 514.888C160.708 514.658 160.922 514.355 161.061 513.98C161.201 513.605 161.27 513.199 161.27 512.761C161.27 512.324 161.201 511.916 161.061 511.538C160.922 511.161 160.708 510.855 160.418 510.622C160.128 510.389 159.759 510.273 159.31 510.273C158.861 510.273 158.492 510.389 158.202 510.622C157.912 510.855 157.698 511.161 157.559 511.538C157.419 511.916 157.35 512.324 157.35 512.761C157.35 513.199 157.419 513.605 157.559 513.98C157.698 514.355 157.912 514.658 158.202 514.888C158.492 515.118 158.861 515.233 159.31 515.233ZM164.817 512.062V516H163.811V509.455H164.783V510.477H164.868C165.021 510.145 165.254 509.878 165.567 509.676C165.879 509.472 166.283 509.369 166.777 509.369C167.22 509.369 167.608 509.46 167.94 509.642C168.273 509.821 168.531 510.094 168.716 510.46C168.901 510.824 168.993 511.284 168.993 511.841V516H167.987V511.909C167.987 511.395 167.854 510.994 167.587 510.707C167.32 510.418 166.953 510.273 166.487 510.273C166.166 510.273 165.879 510.342 165.626 510.482C165.376 510.621 165.179 510.824 165.034 511.091C164.889 511.358 164.817 511.682 164.817 512.062ZM173.677 509.455V510.307H170.285V509.455H173.677ZM171.274 507.886H172.279V514.125C172.279 514.409 172.321 514.622 172.403 514.764C172.488 514.903 172.596 514.997 172.727 515.045C172.86 515.091 173.001 515.114 173.149 515.114C173.26 515.114 173.35 515.108 173.422 515.097C173.493 515.082 173.549 515.071 173.592 515.062L173.797 515.966C173.728 515.991 173.633 516.017 173.511 516.043C173.389 516.071 173.234 516.085 173.047 516.085C172.762 516.085 172.484 516.024 172.211 515.902C171.941 515.78 171.717 515.594 171.538 515.344C171.362 515.094 171.274 514.778 171.274 514.398V507.886ZM175.19 516V509.455H176.162V510.443H176.23C176.349 510.119 176.565 509.857 176.877 509.655C177.19 509.453 177.542 509.352 177.934 509.352C178.008 509.352 178.1 509.354 178.211 509.357C178.322 509.359 178.406 509.364 178.463 509.369V510.392C178.429 510.384 178.35 510.371 178.228 510.354C178.109 510.334 177.983 510.324 177.849 510.324C177.531 510.324 177.247 510.391 176.997 510.524C176.75 510.655 176.554 510.837 176.409 511.07C176.267 511.3 176.196 511.562 176.196 511.858V516H175.19ZM181.581 516.153C181.166 516.153 180.79 516.075 180.452 515.919C180.114 515.76 179.845 515.531 179.646 515.233C179.447 514.932 179.348 514.568 179.348 514.142C179.348 513.767 179.422 513.463 179.57 513.23C179.717 512.994 179.915 512.81 180.162 512.676C180.409 512.543 180.682 512.443 180.98 512.378C181.281 512.31 181.584 512.256 181.888 512.216C182.286 512.165 182.608 512.126 182.855 512.101C183.105 512.072 183.287 512.026 183.401 511.96C183.517 511.895 183.575 511.781 183.575 511.619V511.585C183.575 511.165 183.46 510.838 183.23 510.605C183.003 510.372 182.658 510.256 182.195 510.256C181.714 510.256 181.338 510.361 181.065 510.571C180.793 510.781 180.601 511.006 180.49 511.244L179.536 510.903C179.706 510.506 179.933 510.196 180.217 509.974C180.504 509.75 180.817 509.594 181.155 509.506C181.496 509.415 181.831 509.369 182.161 509.369C182.371 509.369 182.612 509.395 182.885 509.446C183.161 509.494 183.426 509.595 183.682 509.749C183.94 509.902 184.155 510.134 184.325 510.443C184.496 510.753 184.581 511.168 184.581 511.688V516H183.575V515.114H183.524C183.456 515.256 183.342 515.408 183.183 515.57C183.024 515.732 182.813 515.869 182.548 515.983C182.284 516.097 181.962 516.153 181.581 516.153ZM181.734 515.25C182.132 515.25 182.467 515.172 182.74 515.016C183.016 514.859 183.223 514.658 183.362 514.411C183.504 514.163 183.575 513.903 183.575 513.631V512.71C183.533 512.761 183.439 512.808 183.294 512.851C183.152 512.891 182.987 512.926 182.8 512.957C182.615 512.986 182.435 513.011 182.259 513.034C182.085 513.054 181.945 513.071 181.837 513.085C181.575 513.119 181.331 513.175 181.104 513.251C180.879 513.325 180.697 513.437 180.558 513.588C180.422 513.736 180.354 513.937 180.354 514.193C180.354 514.543 180.483 514.807 180.741 514.986C181.003 515.162 181.334 515.25 181.734 515.25ZM191.053 510.92L190.15 511.176C190.093 511.026 190.009 510.879 189.898 510.737C189.79 510.592 189.642 510.473 189.455 510.379C189.267 510.286 189.027 510.239 188.735 510.239C188.334 510.239 188 510.331 187.733 510.516C187.469 510.697 187.337 510.929 187.337 511.21C187.337 511.46 187.428 511.658 187.61 511.803C187.792 511.947 188.076 512.068 188.462 512.165L189.434 512.403C190.019 512.545 190.455 512.763 190.742 513.055C191.029 513.345 191.172 513.719 191.172 514.176C191.172 514.551 191.064 514.886 190.848 515.182C190.635 515.477 190.337 515.71 189.953 515.881C189.57 516.051 189.124 516.136 188.615 516.136C187.948 516.136 187.395 515.991 186.958 515.702C186.52 515.412 186.243 514.989 186.127 514.432L187.081 514.193C187.172 514.545 187.344 514.81 187.597 514.986C187.853 515.162 188.186 515.25 188.598 515.25C189.067 515.25 189.439 515.151 189.715 514.952C189.993 514.75 190.132 514.509 190.132 514.227C190.132 514 190.053 513.81 189.894 513.656C189.735 513.5 189.49 513.384 189.161 513.307L188.07 513.051C187.471 512.909 187.03 512.689 186.749 512.391C186.471 512.089 186.331 511.713 186.331 511.261C186.331 510.892 186.435 510.565 186.642 510.281C186.853 509.997 187.138 509.774 187.499 509.612C187.863 509.45 188.275 509.369 188.735 509.369C189.382 509.369 189.891 509.511 190.26 509.795C190.632 510.08 190.897 510.455 191.053 510.92ZM195.43 516.136C194.8 516.136 194.256 515.997 193.798 515.719C193.344 515.438 192.993 515.045 192.746 514.543C192.501 514.037 192.379 513.449 192.379 512.778C192.379 512.108 192.501 511.517 192.746 511.006C192.993 510.491 193.337 510.091 193.777 509.804C194.22 509.514 194.737 509.369 195.328 509.369C195.669 509.369 196.006 509.426 196.338 509.54C196.67 509.653 196.973 509.838 197.246 510.094C197.518 510.347 197.736 510.682 197.898 511.099C198.06 511.517 198.141 512.031 198.141 512.642V513.068H193.095V512.199H197.118C197.118 511.83 197.044 511.5 196.896 511.21C196.751 510.92 196.544 510.692 196.274 510.524C196.007 510.357 195.692 510.273 195.328 510.273C194.928 510.273 194.581 510.372 194.288 510.571C193.999 510.767 193.776 511.023 193.619 511.338C193.463 511.653 193.385 511.991 193.385 512.352V512.932C193.385 513.426 193.47 513.845 193.641 514.189C193.814 514.53 194.054 514.79 194.361 514.969C194.668 515.145 195.024 515.233 195.43 515.233C195.695 515.233 195.933 515.196 196.146 515.122C196.362 515.045 196.548 514.932 196.705 514.781C196.861 514.628 196.982 514.437 197.067 514.21L198.038 514.483C197.936 514.812 197.764 515.102 197.523 515.352C197.281 515.599 196.983 515.793 196.628 515.932C196.273 516.068 195.874 516.136 195.43 516.136ZM200.676 512.062V516H199.67V509.455H200.642V510.477H200.727C200.881 510.145 201.114 509.878 201.426 509.676C201.739 509.472 202.142 509.369 202.636 509.369C203.08 509.369 203.467 509.46 203.8 509.642C204.132 509.821 204.391 510.094 204.575 510.46C204.76 510.824 204.852 511.284 204.852 511.841V516H203.847V511.909C203.847 511.395 203.713 510.994 203.446 510.707C203.179 510.418 202.813 510.273 202.347 510.273C202.026 510.273 201.739 510.342 201.486 510.482C201.236 510.621 201.038 510.824 200.893 511.091C200.749 511.358 200.676 511.682 200.676 512.062ZM200.949 508.67L200.165 508.636C200.165 508.202 200.288 507.847 200.536 507.571C200.786 507.293 201.094 507.153 201.46 507.153C201.622 507.153 201.766 507.182 201.891 507.239C202.016 507.293 202.135 507.355 202.249 507.426C202.362 507.497 202.479 507.561 202.598 507.618C202.72 507.672 202.858 507.699 203.011 507.699C203.173 507.699 203.31 507.636 203.42 507.511C203.534 507.384 203.591 507.23 203.591 507.051L204.358 507.119C204.358 507.562 204.233 507.915 203.983 508.176C203.736 508.437 203.429 508.568 203.062 508.568C202.866 508.568 202.705 508.541 202.577 508.487C202.449 508.43 202.335 508.366 202.236 508.295C202.136 508.224 202.031 508.162 201.92 508.108C201.81 508.051 201.673 508.023 201.511 508.023C201.349 508.023 201.214 508.087 201.107 508.214C201.001 508.339 200.949 508.491 200.949 508.67ZM208.616 516.153C208.201 516.153 207.825 516.075 207.487 515.919C207.149 515.76 206.88 515.531 206.681 515.233C206.483 514.932 206.383 514.568 206.383 514.142C206.383 513.767 206.457 513.463 206.605 513.23C206.752 512.994 206.95 512.81 207.197 512.676C207.444 512.543 207.717 512.443 208.015 512.378C208.316 512.31 208.619 512.256 208.923 512.216C209.321 512.165 209.643 512.126 209.89 512.101C210.14 512.072 210.322 512.026 210.436 511.96C210.552 511.895 210.61 511.781 210.61 511.619V511.585C210.61 511.165 210.495 510.838 210.265 510.605C210.038 510.372 209.693 510.256 209.23 510.256C208.75 510.256 208.373 510.361 208.1 510.571C207.828 510.781 207.636 511.006 207.525 511.244L206.571 510.903C206.741 510.506 206.968 510.196 207.252 509.974C207.539 509.75 207.852 509.594 208.19 509.506C208.531 509.415 208.866 509.369 209.196 509.369C209.406 509.369 209.647 509.395 209.92 509.446C210.196 509.494 210.461 509.595 210.717 509.749C210.975 509.902 211.19 510.134 211.36 510.443C211.531 510.753 211.616 511.168 211.616 511.688V516H210.61V515.114H210.559C210.491 515.256 210.377 515.408 210.218 515.57C210.059 515.732 209.848 515.869 209.583 515.983C209.319 516.097 208.997 516.153 208.616 516.153ZM208.77 515.25C209.167 515.25 209.502 515.172 209.775 515.016C210.051 514.859 210.258 514.658 210.397 514.411C210.539 514.163 210.61 513.903 210.61 513.631V512.71C210.568 512.761 210.474 512.808 210.329 512.851C210.187 512.891 210.022 512.926 209.835 512.957C209.65 512.986 209.47 513.011 209.294 513.034C209.12 513.054 208.98 513.071 208.872 513.085C208.61 513.119 208.366 513.175 208.139 513.251C207.914 513.325 207.733 513.437 207.593 513.588C207.457 513.736 207.389 513.937 207.389 514.193C207.389 514.543 207.518 514.807 207.777 514.986C208.038 515.162 208.369 515.25 208.77 515.25Z" fill="white"/>
</g>
<g clip-path="url(#clip3_104_13)">
<path d="M275.055 476H83.9448C71.2906 476 61 465.685 61 453C61 440.315 71.2906 430 83.9448 430H275.055C287.709 430 298 440.315 298 453C298 465.685 287.695 476 275.055 476ZM83.9448 432.586C72.7174 432.586 63.5798 441.746 63.5798 453C63.5798 464.254 72.7174 473.414 83.9448 473.414H275.055C286.283 473.414 295.42 464.254 295.42 453C295.42 441.746 286.283 432.586 275.055 432.586H83.9448Z" fill="#71DFE2"/>
<path d="M87.7065 456.424C83.6133 456.424 80.284 453.087 80.284 448.984C80.284 444.881 83.6133 441.558 87.7065 441.558C91.7996 441.558 95.1289 444.895 95.1289 448.998C95.1289 453.101 91.7852 456.424 87.7065 456.424ZM87.7065 444.144C85.0401 444.144 82.8638 446.325 82.8638 448.998C82.8638 451.671 85.0401 453.852 87.7065 453.852C90.3728 453.852 92.5491 451.671 92.5491 448.998C92.5491 446.325 90.3728 444.144 87.7065 444.144Z" fill="#71DFE2"/>
<path d="M96.9881 464.442H78.4104V463.142C78.4104 458.013 82.5756 453.823 87.6921 453.823C92.8085 453.823 96.9737 457.999 96.9737 463.142V464.442H96.9881ZM81.1199 461.856H94.293C93.6877 458.764 90.9637 456.424 87.7065 456.424C84.4492 456.424 81.7253 458.764 81.1199 461.856Z" fill="#71DFE2"/>
<path d="M137.977 448.273V457H136.955L132.199 450.148H132.114V457H131.057V448.273H132.08L136.852 455.142H136.938V448.273H137.977ZM142.615 457.136C142.024 457.136 141.505 456.996 141.059 456.714C140.616 456.433 140.27 456.04 140.02 455.534C139.772 455.028 139.649 454.437 139.649 453.761C139.649 453.08 139.772 452.484 140.02 451.976C140.27 451.467 140.616 451.072 141.059 450.791C141.505 450.51 142.024 450.369 142.615 450.369C143.206 450.369 143.723 450.51 144.166 450.791C144.612 451.072 144.958 451.467 145.206 451.976C145.456 452.484 145.581 453.08 145.581 453.761C145.581 454.437 145.456 455.028 145.206 455.534C144.958 456.04 144.612 456.433 144.166 456.714C143.723 456.996 143.206 457.136 142.615 457.136ZM142.615 456.233C143.064 456.233 143.433 456.118 143.723 455.888C144.012 455.658 144.227 455.355 144.366 454.98C144.505 454.605 144.575 454.199 144.575 453.761C144.575 453.324 144.505 452.916 144.366 452.538C144.227 452.161 144.012 451.855 143.723 451.622C143.433 451.389 143.064 451.273 142.615 451.273C142.166 451.273 141.797 451.389 141.507 451.622C141.217 451.855 141.002 452.161 140.863 452.538C140.724 452.916 140.654 453.324 140.654 453.761C140.654 454.199 140.724 454.605 140.863 454.98C141.002 455.355 141.217 455.658 141.507 455.888C141.797 456.118 142.166 456.233 142.615 456.233ZM147.116 457V450.455H148.087V451.477H148.173C148.309 451.128 148.529 450.857 148.833 450.663C149.137 450.467 149.502 450.369 149.928 450.369C150.36 450.369 150.719 450.467 151.006 450.663C151.296 450.857 151.522 451.128 151.684 451.477H151.752C151.92 451.139 152.171 450.871 152.506 450.672C152.842 450.47 153.244 450.369 153.712 450.369C154.298 450.369 154.776 450.553 155.148 450.919C155.521 451.283 155.707 451.849 155.707 452.619V457H154.701V452.619C154.701 452.136 154.569 451.791 154.305 451.584C154.04 451.376 153.729 451.273 153.371 451.273C152.911 451.273 152.555 451.412 152.302 451.69C152.049 451.966 151.923 452.315 151.923 452.739V457H150.9V452.517C150.9 452.145 150.779 451.845 150.538 451.618C150.296 451.388 149.985 451.273 149.604 451.273C149.343 451.273 149.099 451.342 148.871 451.482C148.647 451.621 148.465 451.814 148.326 452.061C148.19 452.305 148.121 452.588 148.121 452.909V457H147.116ZM157.682 457V448.273H158.688V451.494H158.773C158.847 451.381 158.949 451.236 159.08 451.06C159.213 450.881 159.403 450.722 159.651 450.582C159.901 450.44 160.239 450.369 160.665 450.369C161.216 450.369 161.702 450.507 162.122 450.783C162.543 451.058 162.871 451.449 163.107 451.955C163.342 452.46 163.46 453.057 163.46 453.744C163.46 454.438 163.342 455.038 163.107 455.547C162.871 456.053 162.544 456.445 162.126 456.723C161.709 456.999 161.227 457.136 160.682 457.136C160.261 457.136 159.925 457.067 159.672 456.928C159.419 456.786 159.224 456.625 159.088 456.446C158.952 456.264 158.847 456.114 158.773 455.994H158.653V457H157.682ZM158.67 453.727C158.67 454.222 158.743 454.658 158.888 455.036C159.033 455.411 159.244 455.705 159.523 455.918C159.801 456.128 160.142 456.233 160.545 456.233C160.966 456.233 161.317 456.122 161.598 455.901C161.882 455.676 162.095 455.375 162.237 454.997C162.382 454.616 162.455 454.193 162.455 453.727C162.455 453.267 162.384 452.852 162.241 452.483C162.102 452.111 161.891 451.817 161.607 451.601C161.325 451.382 160.972 451.273 160.545 451.273C160.136 451.273 159.793 451.376 159.514 451.584C159.236 451.788 159.026 452.075 158.884 452.445C158.741 452.811 158.67 453.239 158.67 453.727ZM164.999 457V450.455H165.97V451.443H166.038C166.158 451.119 166.374 450.857 166.686 450.655C166.999 450.453 167.351 450.352 167.743 450.352C167.817 450.352 167.909 450.354 168.02 450.357C168.131 450.359 168.214 450.364 168.271 450.369V451.392C168.237 451.384 168.159 451.371 168.037 451.354C167.918 451.334 167.791 451.324 167.658 451.324C167.339 451.324 167.055 451.391 166.805 451.524C166.558 451.655 166.362 451.837 166.217 452.07C166.075 452.3 166.004 452.562 166.004 452.858V457H164.999ZM172.009 457.136C171.378 457.136 170.834 456.997 170.376 456.719C169.922 456.438 169.571 456.045 169.324 455.543C169.08 455.037 168.957 454.449 168.957 453.778C168.957 453.108 169.08 452.517 169.324 452.006C169.571 451.491 169.915 451.091 170.355 450.804C170.798 450.514 171.315 450.369 171.906 450.369C172.247 450.369 172.584 450.426 172.916 450.54C173.249 450.653 173.551 450.838 173.824 451.094C174.097 451.347 174.314 451.682 174.476 452.099C174.638 452.517 174.719 453.031 174.719 453.642V454.068H169.673V453.199H173.696C173.696 452.83 173.622 452.5 173.474 452.21C173.33 451.92 173.122 451.692 172.852 451.524C172.585 451.357 172.27 451.273 171.906 451.273C171.506 451.273 171.159 451.372 170.866 451.571C170.577 451.767 170.354 452.023 170.197 452.338C170.041 452.653 169.963 452.991 169.963 453.352V453.932C169.963 454.426 170.048 454.845 170.219 455.189C170.392 455.53 170.632 455.79 170.939 455.969C171.246 456.145 171.602 456.233 172.009 456.233C172.273 456.233 172.511 456.196 172.724 456.122C172.94 456.045 173.126 455.932 173.283 455.781C173.439 455.628 173.56 455.437 173.645 455.21L174.616 455.483C174.514 455.812 174.342 456.102 174.101 456.352C173.859 456.599 173.561 456.793 173.206 456.932C172.851 457.068 172.452 457.136 172.009 457.136ZM182.095 457.136C181.55 457.136 181.068 456.999 180.651 456.723C180.233 456.445 179.906 456.053 179.67 455.547C179.435 455.038 179.317 454.438 179.317 453.744C179.317 453.057 179.435 452.46 179.67 451.955C179.906 451.449 180.234 451.058 180.655 450.783C181.075 450.507 181.561 450.369 182.112 450.369C182.538 450.369 182.875 450.44 183.122 450.582C183.372 450.722 183.563 450.881 183.693 451.06C183.827 451.236 183.93 451.381 184.004 451.494H184.089V448.273H185.095V457H184.124V455.994H184.004C183.93 456.114 183.825 456.264 183.689 456.446C183.553 456.625 183.358 456.786 183.105 456.928C182.852 457.067 182.516 457.136 182.095 457.136ZM182.232 456.233C182.635 456.233 182.976 456.128 183.254 455.918C183.533 455.705 183.744 455.411 183.889 455.036C184.034 454.658 184.107 454.222 184.107 453.727C184.107 453.239 184.036 452.811 183.893 452.445C183.751 452.075 183.541 451.788 183.263 451.584C182.984 451.376 182.641 451.273 182.232 451.273C181.805 451.273 181.45 451.382 181.166 451.601C180.885 451.817 180.673 452.111 180.531 452.483C180.392 452.852 180.322 453.267 180.322 453.727C180.322 454.193 180.393 454.616 180.536 454.997C180.68 455.375 180.893 455.676 181.175 455.901C181.459 456.122 181.811 456.233 182.232 456.233ZM189.821 457.136C189.19 457.136 188.646 456.997 188.189 456.719C187.734 456.438 187.384 456.045 187.136 455.543C186.892 455.037 186.77 454.449 186.77 453.778C186.77 453.108 186.892 452.517 187.136 452.006C187.384 451.491 187.727 451.091 188.168 450.804C188.611 450.514 189.128 450.369 189.719 450.369C190.06 450.369 190.396 450.426 190.729 450.54C191.061 450.653 191.364 450.838 191.636 451.094C191.909 451.347 192.126 451.682 192.288 452.099C192.45 452.517 192.531 453.031 192.531 453.642V454.068H187.486V453.199H191.509C191.509 452.83 191.435 452.5 191.287 452.21C191.142 451.92 190.935 451.692 190.665 451.524C190.398 451.357 190.082 451.273 189.719 451.273C189.318 451.273 188.972 451.372 188.679 451.571C188.389 451.767 188.166 452.023 188.01 452.338C187.854 452.653 187.776 452.991 187.776 453.352V453.932C187.776 454.426 187.861 454.845 188.031 455.189C188.205 455.53 188.445 455.79 188.751 455.969C189.058 456.145 189.415 456.233 189.821 456.233C190.085 456.233 190.324 456.196 190.537 456.122C190.753 456.045 190.939 455.932 191.095 455.781C191.251 455.628 191.372 455.437 191.457 455.21L192.429 455.483C192.327 455.812 192.155 456.102 191.913 456.352C191.672 456.599 191.374 456.793 191.018 456.932C190.663 457.068 190.264 457.136 189.821 457.136ZM203.3 448.273H204.357V454.051C204.357 454.648 204.216 455.18 203.935 455.649C203.656 456.115 203.263 456.483 202.754 456.753C202.246 457.02 201.649 457.153 200.964 457.153C200.28 457.153 199.683 457.02 199.175 456.753C198.666 456.483 198.271 456.115 197.99 455.649C197.712 455.18 197.572 454.648 197.572 454.051V448.273H198.629V453.966C198.629 454.392 198.723 454.771 198.911 455.104C199.098 455.433 199.365 455.693 199.712 455.884C200.061 456.071 200.479 456.165 200.964 456.165C201.45 456.165 201.868 456.071 202.217 455.884C202.567 455.693 202.834 455.433 203.018 455.104C203.206 454.771 203.3 454.392 203.3 453.966V448.273ZM210.967 451.92L210.064 452.176C210.007 452.026 209.923 451.879 209.812 451.737C209.704 451.592 209.556 451.473 209.369 451.379C209.181 451.286 208.941 451.239 208.649 451.239C208.248 451.239 207.914 451.331 207.647 451.516C207.383 451.697 207.251 451.929 207.251 452.21C207.251 452.46 207.342 452.658 207.524 452.803C207.706 452.947 207.99 453.068 208.376 453.165L209.348 453.403C209.933 453.545 210.369 453.763 210.656 454.055C210.943 454.345 211.086 454.719 211.086 455.176C211.086 455.551 210.978 455.886 210.762 456.182C210.549 456.477 210.251 456.71 209.868 456.881C209.484 457.051 209.038 457.136 208.529 457.136C207.862 457.136 207.309 456.991 206.872 456.702C206.434 456.412 206.157 455.989 206.041 455.432L206.995 455.193C207.086 455.545 207.258 455.81 207.511 455.986C207.767 456.162 208.1 456.25 208.512 456.25C208.981 456.25 209.353 456.151 209.629 455.952C209.907 455.75 210.047 455.509 210.047 455.227C210.047 455 209.967 454.81 209.808 454.656C209.649 454.5 209.404 454.384 209.075 454.307L207.984 454.051C207.385 453.909 206.944 453.689 206.663 453.391C206.385 453.089 206.245 452.713 206.245 452.261C206.245 451.892 206.349 451.565 206.556 451.281C206.767 450.997 207.052 450.774 207.413 450.612C207.777 450.45 208.189 450.369 208.649 450.369C209.297 450.369 209.805 450.511 210.174 450.795C210.547 451.08 210.811 451.455 210.967 451.92ZM216.725 454.324V450.455H217.731V457H216.725V455.892H216.657C216.504 456.224 216.265 456.507 215.941 456.74C215.617 456.97 215.208 457.085 214.714 457.085C214.305 457.085 213.941 456.996 213.623 456.817C213.305 456.635 213.055 456.362 212.873 455.999C212.691 455.632 212.6 455.17 212.6 454.614V450.455H213.606V454.545C213.606 455.023 213.739 455.403 214.006 455.688C214.276 455.972 214.62 456.114 215.038 456.114C215.288 456.114 215.542 456.05 215.8 455.922C216.062 455.794 216.281 455.598 216.457 455.334C216.636 455.07 216.725 454.733 216.725 454.324ZM221.499 457.153C221.084 457.153 220.708 457.075 220.37 456.919C220.032 456.76 219.763 456.531 219.564 456.233C219.365 455.932 219.266 455.568 219.266 455.142C219.266 454.767 219.34 454.463 219.488 454.23C219.635 453.994 219.833 453.81 220.08 453.676C220.327 453.543 220.6 453.443 220.898 453.378C221.199 453.31 221.502 453.256 221.806 453.216C222.203 453.165 222.526 453.126 222.773 453.101C223.023 453.072 223.205 453.026 223.319 452.96C223.435 452.895 223.493 452.781 223.493 452.619V452.585C223.493 452.165 223.378 451.838 223.148 451.605C222.921 451.372 222.576 451.256 222.113 451.256C221.632 451.256 221.256 451.361 220.983 451.571C220.711 451.781 220.519 452.006 220.408 452.244L219.453 451.903C219.624 451.506 219.851 451.196 220.135 450.974C220.422 450.75 220.735 450.594 221.073 450.506C221.414 450.415 221.749 450.369 222.078 450.369C222.289 450.369 222.53 450.395 222.803 450.446C223.078 450.494 223.344 450.595 223.6 450.749C223.858 450.902 224.073 451.134 224.243 451.443C224.414 451.753 224.499 452.168 224.499 452.688V457H223.493V456.114H223.442C223.374 456.256 223.26 456.408 223.101 456.57C222.942 456.732 222.73 456.869 222.466 456.983C222.202 457.097 221.88 457.153 221.499 457.153ZM221.652 456.25C222.05 456.25 222.385 456.172 222.658 456.016C222.934 455.859 223.141 455.658 223.28 455.411C223.422 455.163 223.493 454.903 223.493 454.631V453.71C223.451 453.761 223.357 453.808 223.212 453.851C223.07 453.891 222.905 453.926 222.718 453.957C222.533 453.986 222.353 454.011 222.176 454.034C222.003 454.054 221.863 454.071 221.755 454.085C221.493 454.119 221.249 454.175 221.022 454.251C220.797 454.325 220.615 454.437 220.476 454.588C220.34 454.736 220.272 454.937 220.272 455.193C220.272 455.543 220.401 455.807 220.659 455.986C220.921 456.162 221.252 456.25 221.652 456.25ZM226.335 457V450.455H227.306V451.443H227.374C227.494 451.119 227.71 450.857 228.022 450.655C228.335 450.453 228.687 450.352 229.079 450.352C229.153 450.352 229.245 450.354 229.356 450.357C229.467 450.359 229.55 450.364 229.607 450.369V451.392C229.573 451.384 229.495 451.371 229.373 451.354C229.254 451.334 229.127 451.324 228.994 451.324C228.675 451.324 228.391 451.391 228.141 451.524C227.894 451.655 227.698 451.837 227.553 452.07C227.411 452.3 227.34 452.562 227.34 452.858V457H226.335ZM230.799 457V450.455H231.805V457H230.799ZM231.311 449.364C231.115 449.364 230.946 449.297 230.804 449.163C230.664 449.03 230.595 448.869 230.595 448.682C230.595 448.494 230.664 448.334 230.804 448.2C230.946 448.067 231.115 448 231.311 448C231.507 448 231.674 448.067 231.814 448.2C231.956 448.334 232.027 448.494 232.027 448.682C232.027 448.869 231.956 449.03 231.814 449.163C231.674 449.297 231.507 449.364 231.311 449.364ZM236.306 457.136C235.715 457.136 235.197 456.996 234.751 456.714C234.308 456.433 233.961 456.04 233.711 455.534C233.464 455.028 233.34 454.437 233.34 453.761C233.34 453.08 233.464 452.484 233.711 451.976C233.961 451.467 234.308 451.072 234.751 450.791C235.197 450.51 235.715 450.369 236.306 450.369C236.897 450.369 237.414 450.51 237.857 450.791C238.303 451.072 238.65 451.467 238.897 451.976C239.147 452.484 239.272 453.08 239.272 453.761C239.272 454.437 239.147 455.028 238.897 455.534C238.65 456.04 238.303 456.433 237.857 456.714C237.414 456.996 236.897 457.136 236.306 457.136ZM236.306 456.233C236.755 456.233 237.124 456.118 237.414 455.888C237.704 455.658 237.918 455.355 238.058 454.98C238.197 454.605 238.266 454.199 238.266 453.761C238.266 453.324 238.197 452.916 238.058 452.538C237.918 452.161 237.704 451.855 237.414 451.622C237.124 451.389 236.755 451.273 236.306 451.273C235.857 451.273 235.488 451.389 235.198 451.622C234.908 451.855 234.694 452.161 234.555 452.538C234.415 452.916 234.346 453.324 234.346 453.761C234.346 454.199 234.415 454.605 234.555 454.98C234.694 455.355 234.908 455.658 235.198 455.888C235.488 456.118 235.857 456.233 236.306 456.233Z" fill="white"/>
</g>
<g clip-path="url(#clip4_104_13)">
<path d="M231.421 270L207.546 214.504H156.723L132.645 270H110.422L143.705 194.328L143.735 194.132L157.996 160.582H206.309L220.894 194.157H225.252C236.85 194.157 246.808 185.495 248.423 174.012C249.366 167.297 247.359 160.514 242.909 155.403C238.466 150.285 232.027 147.353 225.252 147.353H163.198L171.815 127H225.252C237.921 127 249.954 132.485 258.265 142.046C266.576 151.608 270.334 164.291 268.572 176.84C265.762 196.85 249.397 212.264 229.634 214.272L253.607 269.994L231.421 270ZM169.747 181.969L164.96 195.198H198.39L192.643 181.969H169.747Z" fill="#79D67B"/>
<path d="M131.366 214.425C111.603 212.417 95.2377 196.997 92.4284 176.993C90.6658 164.444 94.4237 151.761 102.735 142.199C111.046 132.632 123.079 127.147 135.748 127.147H167.611L159.244 147.494H135.748C128.973 147.494 122.534 150.426 118.091 155.544C113.648 160.661 111.634 167.443 112.577 174.152C114.192 185.636 124.15 194.298 135.748 194.298H140.106" fill="white"/>
</g>
<g clip-path="url(#clip5_104_13)">
<path d="M122.438 328.49H129.826C134.95 328.49 137.256 331.349 137.256 335.24C137.256 338.164 135.954 340.457 133.164 341.41L138.11 350.503H135.036L130.423 341.89C130.238 341.897 130.06 341.897 129.868 341.897H125.085V350.496H122.438V328.49ZM129.783 339.504C133.285 339.504 134.651 337.891 134.651 335.247C134.651 332.603 133.285 330.861 129.74 330.861H125.085V339.504H129.783Z" fill="#2A4954"/>
<path d="M140.359 328.49H153.555V330.854H143.007V338.293H152.872V340.657H143.007V348.139H153.726V350.503H140.359V328.49Z" fill="#2A4954"/>
<path d="M156.246 328.49H158.893V338.293H170.552V328.49H173.199V350.503H170.552V340.657H158.893V350.503H156.246V328.49Z" fill="#2A4954"/>
<path d="M176.068 350.51L183.448 328.497H190.488L197.868 350.51H192.189L190.744 345.888H183.192L181.747 350.51H176.068ZM189.477 341.847L187.043 334.043H186.872L184.445 341.847H189.477Z" fill="#79D67B"/>
<path d="M200.758 328.49H209.79C214.701 328.49 217.769 331.585 217.769 336.114C217.769 340.686 214.637 343.674 209.633 343.674H206.046V350.51H200.758V328.49ZM208.651 339.475C211.021 339.475 212.295 338.142 212.295 336.107C212.295 334.065 211.021 332.775 208.651 332.775H206.046V339.475H208.651Z" fill="#79D67B"/>
<path d="M220.552 328.49H229.584C234.495 328.49 237.562 331.585 237.562 336.114C237.562 340.686 234.431 343.674 229.427 343.674H225.84V350.51H220.552V328.49ZM228.445 339.475C230.815 339.475 232.089 338.142 232.089 336.107C232.089 334.065 230.815 332.775 228.445 332.775H225.84V339.475H228.445Z" fill="#79D67B"/>
<path d="M234.438 365H125.555C112.018 365 101 353.907 101 340.278V338.722C101 325.093 112.018 314 125.555 314H234.438C247.982 314 258.993 325.093 258.993 338.722V340.27C259 353.907 247.982 365 234.438 365ZM125.555 322.621C116.737 322.621 109.555 329.844 109.555 338.73V340.278C109.555 349.156 116.73 356.387 125.555 356.387H234.438C243.256 356.387 250.438 349.163 250.438 340.278V338.722C250.438 329.844 243.263 322.613 234.438 322.613H125.555V322.621Z" fill="#2A4954"/>
<path d="M234.438 365H125.555C112.018 365 101 353.907 101 340.278V338.722C101 325.093 112.018 314 125.555 314H234.438C247.982 314 258.993 325.093 258.993 338.722V340.27C259 353.907 247.982 365 234.438 365ZM125.555 322.621C116.737 322.621 109.555 329.844 109.555 338.73V340.278C109.555 349.156 116.73 356.387 125.555 356.387H234.438C243.256 356.387 250.438 349.163 250.438 340.278V338.722C250.438 329.844 243.263 322.613 234.438 322.613H125.555V322.621Z" fill="url(#paint0_linear_104_13)"/>
</g>
<g clip-path="url(#clip6_104_13)">
<path d="M246.52 640.94H113.92C105.62 640.94 98.89 634.21 98.89 625.91C98.9 617.62 105.62 610.9 113.92 610.9H246.52C254.82 610.9 261.55 617.63 261.55 625.92C261.54 634.22 254.81 640.94 246.52 640.94Z" fill="white"/>
<path d="M246.52 641.84H113.92C105.14 641.84 98 634.7 98 625.92C98 617.14 105.14 610 113.92 610H246.52C255.3 610 262.44 617.14 262.44 625.92C262.44 634.7 255.29 641.84 246.52 641.84ZM113.92 611.79C106.13 611.79 99.79 618.13 99.79 625.92C99.79 633.71 106.13 640.05 113.92 640.05H246.52C254.31 640.05 260.65 633.71 260.65 625.92C260.65 618.13 254.31 611.79 246.52 611.79H113.92Z" fill="white"/>
<path d="M134.057 631V622.273H137.006C137.688 622.273 138.247 622.389 138.685 622.622C139.122 622.852 139.446 623.169 139.656 623.572C139.866 623.976 139.972 624.435 139.972 624.949C139.972 625.463 139.866 625.919 139.656 626.317C139.446 626.714 139.124 627.027 138.689 627.254C138.254 627.479 137.699 627.591 137.023 627.591H134.636V626.636H136.989C137.455 626.636 137.83 626.568 138.114 626.432C138.401 626.295 138.608 626.102 138.736 625.852C138.866 625.599 138.932 625.298 138.932 624.949C138.932 624.599 138.866 624.294 138.736 624.033C138.605 623.771 138.396 623.57 138.109 623.428C137.822 623.283 137.443 623.21 136.972 623.21H135.114V631H134.057ZM138.165 627.08L140.312 631H139.085L136.972 627.08H138.165ZM144.27 631.136C143.64 631.136 143.096 630.997 142.638 630.719C142.184 630.438 141.833 630.045 141.586 629.543C141.341 629.037 141.219 628.449 141.219 627.778C141.219 627.108 141.341 626.517 141.586 626.006C141.833 625.491 142.176 625.091 142.617 624.804C143.06 624.514 143.577 624.369 144.168 624.369C144.509 624.369 144.846 624.426 145.178 624.54C145.51 624.653 145.813 624.838 146.086 625.094C146.358 625.347 146.576 625.682 146.738 626.099C146.9 626.517 146.98 627.031 146.98 627.642V628.068H141.935V627.199H145.958C145.958 626.83 145.884 626.5 145.736 626.21C145.591 625.92 145.384 625.692 145.114 625.524C144.847 625.357 144.532 625.273 144.168 625.273C143.767 625.273 143.421 625.372 143.128 625.571C142.838 625.767 142.615 626.023 142.459 626.338C142.303 626.653 142.225 626.991 142.225 627.352V627.932C142.225 628.426 142.31 628.845 142.48 629.189C142.654 629.53 142.894 629.79 143.201 629.969C143.507 630.145 143.864 630.233 144.27 630.233C144.534 630.233 144.773 630.196 144.986 630.122C145.202 630.045 145.388 629.932 145.544 629.781C145.701 629.628 145.821 629.437 145.907 629.21L146.878 629.483C146.776 629.812 146.604 630.102 146.363 630.352C146.121 630.599 145.823 630.793 145.468 630.932C145.113 631.068 144.713 631.136 144.27 631.136ZM151.152 633.591C150.667 633.591 150.249 633.528 149.9 633.403C149.55 633.281 149.259 633.119 149.026 632.918C148.796 632.719 148.613 632.506 148.476 632.278L149.277 631.716C149.368 631.835 149.483 631.972 149.623 632.125C149.762 632.281 149.952 632.416 150.194 632.53C150.438 632.646 150.757 632.705 151.152 632.705C151.681 632.705 152.117 632.577 152.461 632.321C152.804 632.065 152.976 631.665 152.976 631.119V629.79H152.891C152.817 629.909 152.712 630.057 152.576 630.233C152.442 630.406 152.249 630.561 151.996 630.697C151.746 630.831 151.408 630.898 150.982 630.898C150.453 630.898 149.979 630.773 149.559 630.523C149.141 630.273 148.81 629.909 148.566 629.432C148.324 628.955 148.203 628.375 148.203 627.693C148.203 627.023 148.321 626.439 148.557 625.942C148.793 625.442 149.121 625.055 149.542 624.783C149.962 624.507 150.448 624.369 150.999 624.369C151.425 624.369 151.763 624.44 152.013 624.582C152.266 624.722 152.459 624.881 152.593 625.06C152.729 625.236 152.834 625.381 152.908 625.494H153.01V624.455H153.982V631.188C153.982 631.75 153.854 632.207 153.598 632.56C153.346 632.915 153.005 633.175 152.576 633.339C152.15 633.507 151.675 633.591 151.152 633.591ZM151.118 629.994C151.522 629.994 151.863 629.902 152.141 629.717C152.419 629.533 152.631 629.267 152.776 628.92C152.921 628.574 152.993 628.159 152.993 627.676C152.993 627.205 152.922 626.788 152.78 626.428C152.638 626.067 152.428 625.784 152.15 625.58C151.871 625.375 151.527 625.273 151.118 625.273C150.692 625.273 150.337 625.381 150.053 625.597C149.772 625.812 149.56 626.102 149.418 626.466C149.279 626.83 149.209 627.233 149.209 627.676C149.209 628.131 149.28 628.533 149.422 628.882C149.567 629.229 149.78 629.501 150.061 629.7C150.346 629.896 150.698 629.994 151.118 629.994ZM155.823 631V624.455H156.828V631H155.823ZM156.334 623.364C156.138 623.364 155.969 623.297 155.827 623.163C155.688 623.03 155.618 622.869 155.618 622.682C155.618 622.494 155.688 622.334 155.827 622.2C155.969 622.067 156.138 622 156.334 622C156.53 622 156.698 622.067 156.837 622.2C156.979 622.334 157.05 622.494 157.05 622.682C157.05 622.869 156.979 623.03 156.837 623.163C156.698 623.297 156.53 623.364 156.334 623.364ZM163.307 625.92L162.403 626.176C162.347 626.026 162.263 625.879 162.152 625.737C162.044 625.592 161.896 625.473 161.709 625.379C161.521 625.286 161.281 625.239 160.989 625.239C160.588 625.239 160.254 625.331 159.987 625.516C159.723 625.697 159.591 625.929 159.591 626.21C159.591 626.46 159.682 626.658 159.864 626.803C160.045 626.947 160.33 627.068 160.716 627.165L161.688 627.403C162.273 627.545 162.709 627.763 162.996 628.055C163.283 628.345 163.426 628.719 163.426 629.176C163.426 629.551 163.318 629.886 163.102 630.182C162.889 630.477 162.591 630.71 162.207 630.881C161.824 631.051 161.378 631.136 160.869 631.136C160.202 631.136 159.649 630.991 159.212 630.702C158.774 630.412 158.497 629.989 158.381 629.432L159.335 629.193C159.426 629.545 159.598 629.81 159.851 629.986C160.107 630.162 160.44 630.25 160.852 630.25C161.321 630.25 161.693 630.151 161.969 629.952C162.247 629.75 162.386 629.509 162.386 629.227C162.386 629 162.307 628.81 162.148 628.656C161.989 628.5 161.744 628.384 161.415 628.307L160.324 628.051C159.724 627.909 159.284 627.689 159.003 627.391C158.724 627.089 158.585 626.713 158.585 626.261C158.585 625.892 158.689 625.565 158.896 625.281C159.107 624.997 159.392 624.774 159.753 624.612C160.116 624.45 160.528 624.369 160.989 624.369C161.636 624.369 162.145 624.511 162.514 624.795C162.886 625.08 163.151 625.455 163.307 625.92ZM167.787 624.455V625.307H164.395V624.455H167.787ZM165.383 622.886H166.389V629.125C166.389 629.409 166.43 629.622 166.512 629.764C166.598 629.903 166.706 629.997 166.836 630.045C166.97 630.091 167.11 630.114 167.258 630.114C167.369 630.114 167.46 630.108 167.531 630.097C167.602 630.082 167.659 630.071 167.701 630.062L167.906 630.966C167.838 630.991 167.743 631.017 167.62 631.043C167.498 631.071 167.343 631.085 167.156 631.085C166.872 631.085 166.593 631.024 166.321 630.902C166.051 630.78 165.826 630.594 165.647 630.344C165.471 630.094 165.383 629.778 165.383 629.398V622.886ZM169.299 631V624.455H170.271V625.443H170.339C170.458 625.119 170.674 624.857 170.987 624.655C171.299 624.453 171.652 624.352 172.044 624.352C172.118 624.352 172.21 624.354 172.321 624.357C172.431 624.359 172.515 624.364 172.572 624.369V625.392C172.538 625.384 172.46 625.371 172.338 625.354C172.218 625.334 172.092 625.324 171.958 625.324C171.64 625.324 171.356 625.391 171.106 625.524C170.859 625.655 170.663 625.837 170.518 626.07C170.376 626.3 170.305 626.562 170.305 626.858V631H169.299ZM176.224 631.136C175.633 631.136 175.115 630.996 174.669 630.714C174.225 630.433 173.879 630.04 173.629 629.534C173.382 629.028 173.258 628.437 173.258 627.761C173.258 627.08 173.382 626.484 173.629 625.976C173.879 625.467 174.225 625.072 174.669 624.791C175.115 624.51 175.633 624.369 176.224 624.369C176.815 624.369 177.332 624.51 177.775 624.791C178.221 625.072 178.568 625.467 178.815 625.976C179.065 626.484 179.19 627.08 179.19 627.761C179.19 628.437 179.065 629.028 178.815 629.534C178.568 630.04 178.221 630.433 177.775 630.714C177.332 630.996 176.815 631.136 176.224 631.136ZM176.224 630.233C176.673 630.233 177.042 630.118 177.332 629.888C177.622 629.658 177.836 629.355 177.975 628.98C178.115 628.605 178.184 628.199 178.184 627.761C178.184 627.324 178.115 626.916 177.975 626.538C177.836 626.161 177.622 625.855 177.332 625.622C177.042 625.389 176.673 625.273 176.224 625.273C175.775 625.273 175.406 625.389 175.116 625.622C174.826 625.855 174.612 626.161 174.473 626.538C174.333 626.916 174.264 627.324 174.264 627.761C174.264 628.199 174.333 628.605 174.473 628.98C174.612 629.355 174.826 629.658 175.116 629.888C175.406 630.118 175.775 630.233 176.224 630.233ZM189.964 622.273H191.021V628.051C191.021 628.648 190.88 629.18 190.599 629.649C190.32 630.115 189.927 630.483 189.418 630.753C188.91 631.02 188.313 631.153 187.629 631.153C186.944 631.153 186.347 631.02 185.839 630.753C185.33 630.483 184.935 630.115 184.654 629.649C184.376 629.18 184.237 628.648 184.237 628.051V622.273H185.293V627.966C185.293 628.392 185.387 628.771 185.575 629.104C185.762 629.433 186.029 629.693 186.376 629.884C186.725 630.071 187.143 630.165 187.629 630.165C188.114 630.165 188.532 630.071 188.881 629.884C189.231 629.693 189.498 629.433 189.683 629.104C189.87 628.771 189.964 628.392 189.964 627.966V622.273ZM197.631 625.92L196.728 626.176C196.671 626.026 196.587 625.879 196.476 625.737C196.368 625.592 196.221 625.473 196.033 625.379C195.846 625.286 195.605 625.239 195.313 625.239C194.912 625.239 194.578 625.331 194.311 625.516C194.047 625.697 193.915 625.929 193.915 626.21C193.915 626.46 194.006 626.658 194.188 626.803C194.37 626.947 194.654 627.068 195.04 627.165L196.012 627.403C196.597 627.545 197.033 627.763 197.32 628.055C197.607 628.345 197.75 628.719 197.75 629.176C197.75 629.551 197.642 629.886 197.426 630.182C197.213 630.477 196.915 630.71 196.532 630.881C196.148 631.051 195.702 631.136 195.194 631.136C194.526 631.136 193.973 630.991 193.536 630.702C193.098 630.412 192.821 629.989 192.705 629.432L193.659 629.193C193.75 629.545 193.922 629.81 194.175 629.986C194.431 630.162 194.765 630.25 195.176 630.25C195.645 630.25 196.017 630.151 196.293 629.952C196.571 629.75 196.711 629.509 196.711 629.227C196.711 629 196.631 628.81 196.472 628.656C196.313 628.5 196.069 628.384 195.739 628.307L194.648 628.051C194.049 627.909 193.608 627.689 193.327 627.391C193.049 627.089 192.909 626.713 192.909 626.261C192.909 625.892 193.013 625.565 193.221 625.281C193.431 624.997 193.716 624.774 194.077 624.612C194.441 624.45 194.853 624.369 195.313 624.369C195.961 624.369 196.469 624.511 196.838 624.795C197.211 625.08 197.475 625.455 197.631 625.92ZM203.389 628.324V624.455H204.395V631H203.389V629.892H203.321C203.168 630.224 202.929 630.507 202.605 630.74C202.281 630.97 201.872 631.085 201.378 631.085C200.969 631.085 200.605 630.996 200.287 630.817C199.969 630.635 199.719 630.362 199.537 629.999C199.355 629.632 199.264 629.17 199.264 628.614V624.455H200.27V628.545C200.27 629.023 200.403 629.403 200.67 629.688C200.94 629.972 201.284 630.114 201.702 630.114C201.952 630.114 202.206 630.05 202.464 629.922C202.726 629.794 202.945 629.598 203.121 629.334C203.3 629.07 203.389 628.733 203.389 628.324ZM208.163 631.153C207.748 631.153 207.372 631.075 207.034 630.919C206.696 630.76 206.427 630.531 206.228 630.233C206.029 629.932 205.93 629.568 205.93 629.142C205.93 628.767 206.004 628.463 206.152 628.23C206.299 627.994 206.497 627.81 206.744 627.676C206.991 627.543 207.264 627.443 207.562 627.378C207.863 627.31 208.166 627.256 208.47 627.216C208.868 627.165 209.19 627.126 209.437 627.101C209.687 627.072 209.869 627.026 209.983 626.96C210.099 626.895 210.157 626.781 210.157 626.619V626.585C210.157 626.165 210.042 625.838 209.812 625.605C209.585 625.372 209.24 625.256 208.777 625.256C208.297 625.256 207.92 625.361 207.647 625.571C207.375 625.781 207.183 626.006 207.072 626.244L206.118 625.903C206.288 625.506 206.515 625.196 206.799 624.974C207.086 624.75 207.399 624.594 207.737 624.506C208.078 624.415 208.413 624.369 208.743 624.369C208.953 624.369 209.194 624.395 209.467 624.446C209.743 624.494 210.008 624.595 210.264 624.749C210.522 624.902 210.737 625.134 210.907 625.443C211.078 625.753 211.163 626.168 211.163 626.688V631H210.157V630.114H210.106C210.038 630.256 209.924 630.408 209.765 630.57C209.606 630.732 209.395 630.869 209.13 630.983C208.866 631.097 208.544 631.153 208.163 631.153ZM208.316 630.25C208.714 630.25 209.049 630.172 209.322 630.016C209.598 629.859 209.805 629.658 209.944 629.411C210.086 629.163 210.157 628.903 210.157 628.631V627.71C210.115 627.761 210.021 627.808 209.876 627.851C209.734 627.891 209.569 627.926 209.382 627.957C209.197 627.986 209.017 628.011 208.841 628.034C208.667 628.054 208.527 628.071 208.419 628.085C208.157 628.119 207.913 628.175 207.686 628.251C207.461 628.325 207.279 628.437 207.14 628.588C207.004 628.736 206.936 628.937 206.936 629.193C206.936 629.543 207.065 629.807 207.324 629.986C207.585 630.162 207.916 630.25 208.316 630.25ZM212.999 631V624.455H213.97V625.443H214.038C214.158 625.119 214.374 624.857 214.686 624.655C214.999 624.453 215.351 624.352 215.743 624.352C215.817 624.352 215.909 624.354 216.02 624.357C216.131 624.359 216.214 624.364 216.271 624.369V625.392C216.237 625.384 216.159 625.371 216.037 625.354C215.918 625.334 215.791 625.324 215.658 625.324C215.339 625.324 215.055 625.391 214.805 625.524C214.558 625.655 214.362 625.837 214.217 626.07C214.075 626.3 214.004 626.562 214.004 626.858V631H212.999ZM217.463 631V624.455H218.469V631H217.463ZM217.975 623.364C217.779 623.364 217.61 623.297 217.468 623.163C217.328 623.03 217.259 622.869 217.259 622.682C217.259 622.494 217.328 622.334 217.468 622.2C217.61 622.067 217.779 622 217.975 622C218.171 622 218.338 622.067 218.478 622.2C218.62 622.334 218.691 622.494 218.691 622.682C218.691 622.869 218.62 623.03 218.478 623.163C218.338 623.297 218.171 623.364 217.975 623.364ZM222.97 631.136C222.379 631.136 221.861 630.996 221.415 630.714C220.972 630.433 220.625 630.04 220.375 629.534C220.128 629.028 220.004 628.437 220.004 627.761C220.004 627.08 220.128 626.484 220.375 625.976C220.625 625.467 220.972 625.072 221.415 624.791C221.861 624.51 222.379 624.369 222.97 624.369C223.561 624.369 224.078 624.51 224.521 624.791C224.967 625.072 225.314 625.467 225.561 625.976C225.811 626.484 225.936 627.08 225.936 627.761C225.936 628.437 225.811 629.028 225.561 629.534C225.314 630.04 224.967 630.433 224.521 630.714C224.078 630.996 223.561 631.136 222.97 631.136ZM222.97 630.233C223.419 630.233 223.788 630.118 224.078 629.888C224.368 629.658 224.582 629.355 224.722 628.98C224.861 628.605 224.93 628.199 224.93 627.761C224.93 627.324 224.861 626.916 224.722 626.538C224.582 626.161 224.368 625.855 224.078 625.622C223.788 625.389 223.419 625.273 222.97 625.273C222.521 625.273 222.152 625.389 221.862 625.622C221.572 625.855 221.358 626.161 221.219 626.538C221.08 626.916 221.01 627.324 221.01 627.761C221.01 628.199 221.08 628.605 221.219 628.98C221.358 629.355 221.572 629.658 221.862 629.888C222.152 630.118 222.521 630.233 222.97 630.233Z" fill="#007BA4"/>
</g>
</g>
<g clip-path="url(#clip7_104_13)">
<path d="M246.52 596.94H113.92C105.62 596.94 98.89 590.21 98.89 581.91C98.9 573.62 105.62 566.9 113.92 566.9H246.52C254.82 566.9 261.55 573.63 261.55 581.92C261.54 590.22 254.81 596.94 246.52 596.94Z" fill="white"/>
<path d="M246.52 597.84H113.92C105.14 597.84 98 590.7 98 581.92C98 573.14 105.14 566 113.92 566H246.52C255.3 566 262.44 573.14 262.44 581.92C262.44 590.7 255.29 597.84 246.52 597.84ZM113.92 567.79C106.13 567.79 99.79 574.13 99.79 581.92C99.79 589.71 106.13 596.05 113.92 596.05H246.52C254.31 596.05 260.65 589.71 260.65 581.92C260.65 574.13 254.31 567.79 246.52 567.79H113.92Z" fill="white"/>
<path d="M146.114 578.273V587H145.057V578.273H146.114ZM149.102 583.062V587H148.096V580.455H149.068V581.477H149.153C149.306 581.145 149.539 580.878 149.852 580.676C150.164 580.472 150.568 580.369 151.062 580.369C151.505 580.369 151.893 580.46 152.225 580.642C152.558 580.821 152.816 581.094 153.001 581.46C153.186 581.824 153.278 582.284 153.278 582.841V587H152.272V582.909C152.272 582.395 152.139 581.994 151.872 581.707C151.605 581.418 151.238 581.273 150.772 581.273C150.451 581.273 150.164 581.342 149.912 581.482C149.662 581.621 149.464 581.824 149.319 582.091C149.174 582.358 149.102 582.682 149.102 583.062ZM155.116 587V580.455H156.121V587H155.116ZM155.627 579.364C155.431 579.364 155.262 579.297 155.12 579.163C154.981 579.03 154.911 578.869 154.911 578.682C154.911 578.494 154.981 578.334 155.12 578.2C155.262 578.067 155.431 578 155.627 578C155.823 578 155.991 578.067 156.13 578.2C156.272 578.334 156.343 578.494 156.343 578.682C156.343 578.869 156.272 579.03 156.13 579.163C155.991 579.297 155.823 579.364 155.627 579.364ZM160.623 587.136C160.009 587.136 159.48 586.991 159.037 586.702C158.594 586.412 158.253 586.013 158.015 585.504C157.776 584.996 157.657 584.415 157.657 583.761C157.657 583.097 157.779 582.51 158.023 582.001C158.27 581.49 158.614 581.091 159.054 580.804C159.498 580.514 160.015 580.369 160.605 580.369C161.066 580.369 161.48 580.455 161.85 580.625C162.219 580.795 162.522 581.034 162.757 581.341C162.993 581.648 163.14 582.006 163.196 582.415H162.191C162.114 582.116 161.944 581.852 161.679 581.622C161.418 581.389 161.066 581.273 160.623 581.273C160.23 581.273 159.887 581.375 159.591 581.58C159.299 581.781 159.07 582.067 158.905 582.436C158.743 582.803 158.662 583.233 158.662 583.727C158.662 584.233 158.742 584.673 158.901 585.048C159.063 585.423 159.29 585.714 159.583 585.922C159.878 586.129 160.225 586.233 160.623 586.233C160.884 586.233 161.121 586.188 161.334 586.097C161.547 586.006 161.728 585.875 161.875 585.705C162.023 585.534 162.128 585.33 162.191 585.091H163.196C163.14 585.477 162.999 585.825 162.775 586.135C162.553 586.442 162.259 586.686 161.892 586.868C161.529 587.047 161.105 587.136 160.623 587.136ZM164.667 587V580.455H165.672V587H164.667ZM165.178 579.364C164.982 579.364 164.813 579.297 164.671 579.163C164.532 579.03 164.462 578.869 164.462 578.682C164.462 578.494 164.532 578.334 164.671 578.2C164.813 578.067 164.982 578 165.178 578C165.374 578 165.542 578.067 165.681 578.2C165.823 578.334 165.894 578.494 165.894 578.682C165.894 578.869 165.823 579.03 165.681 579.163C165.542 579.297 165.374 579.364 165.178 579.364ZM170.173 587.136C169.582 587.136 169.064 586.996 168.618 586.714C168.175 586.433 167.828 586.04 167.578 585.534C167.331 585.028 167.207 584.437 167.207 583.761C167.207 583.08 167.331 582.484 167.578 581.976C167.828 581.467 168.175 581.072 168.618 580.791C169.064 580.51 169.582 580.369 170.173 580.369C170.764 580.369 171.281 580.51 171.724 580.791C172.17 581.072 172.517 581.467 172.764 581.976C173.014 582.484 173.139 583.08 173.139 583.761C173.139 584.437 173.014 585.028 172.764 585.534C172.517 586.04 172.17 586.433 171.724 586.714C171.281 586.996 170.764 587.136 170.173 587.136ZM170.173 586.233C170.622 586.233 170.991 586.118 171.281 585.888C171.571 585.658 171.786 585.355 171.925 584.98C172.064 584.605 172.134 584.199 172.134 583.761C172.134 583.324 172.064 582.916 171.925 582.538C171.786 582.161 171.571 581.855 171.281 581.622C170.991 581.389 170.622 581.273 170.173 581.273C169.724 581.273 169.355 581.389 169.065 581.622C168.776 581.855 168.561 582.161 168.422 582.538C168.283 582.916 168.213 583.324 168.213 583.761C168.213 584.199 168.283 584.605 168.422 584.98C168.561 585.355 168.776 585.658 169.065 585.888C169.355 586.118 169.724 586.233 170.173 586.233ZM182.958 580.455C182.907 580.023 182.7 579.688 182.336 579.449C181.973 579.21 181.527 579.091 180.998 579.091C180.612 579.091 180.274 579.153 179.984 579.278C179.697 579.403 179.473 579.575 179.311 579.794C179.152 580.013 179.072 580.261 179.072 580.54C179.072 580.773 179.127 580.973 179.238 581.141C179.352 581.305 179.497 581.443 179.673 581.554C179.849 581.662 180.034 581.751 180.227 581.822C180.42 581.891 180.598 581.946 180.76 581.989L181.646 582.227C181.873 582.287 182.126 582.369 182.404 582.474C182.686 582.58 182.954 582.723 183.21 582.905C183.468 583.084 183.681 583.314 183.849 583.595C184.017 583.876 184.1 584.222 184.1 584.631C184.1 585.102 183.977 585.528 183.73 585.909C183.485 586.29 183.127 586.592 182.656 586.817C182.187 587.041 181.618 587.153 180.947 587.153C180.322 587.153 179.781 587.053 179.324 586.851C178.869 586.649 178.511 586.368 178.25 586.007C177.991 585.646 177.845 585.227 177.811 584.75H178.902C178.93 585.08 179.041 585.352 179.234 585.568C179.43 585.781 179.677 585.94 179.975 586.045C180.277 586.148 180.6 586.199 180.947 586.199C181.35 586.199 181.713 586.134 182.034 586.003C182.355 585.869 182.609 585.685 182.797 585.449C182.984 585.21 183.078 584.932 183.078 584.614C183.078 584.324 182.997 584.088 182.835 583.906C182.673 583.724 182.46 583.577 182.196 583.463C181.931 583.349 181.646 583.25 181.339 583.165L180.265 582.858C179.583 582.662 179.044 582.382 178.646 582.018C178.248 581.655 178.049 581.179 178.049 580.591C178.049 580.102 178.181 579.676 178.446 579.312C178.713 578.946 179.071 578.662 179.52 578.46C179.971 578.256 180.475 578.153 181.032 578.153C181.595 578.153 182.095 578.254 182.532 578.456C182.97 578.655 183.316 578.928 183.572 579.274C183.831 579.621 183.967 580.014 183.981 580.455H182.958ZM188.446 587.136C187.815 587.136 187.271 586.997 186.814 586.719C186.359 586.438 186.009 586.045 185.761 585.543C185.517 585.037 185.395 584.449 185.395 583.778C185.395 583.108 185.517 582.517 185.761 582.006C186.009 581.491 186.352 581.091 186.793 580.804C187.236 580.514 187.753 580.369 188.344 580.369C188.685 580.369 189.021 580.426 189.354 580.54C189.686 580.653 189.989 580.838 190.261 581.094C190.534 581.347 190.751 581.682 190.913 582.099C191.075 582.517 191.156 583.031 191.156 583.642V584.068H186.111V583.199H190.134C190.134 582.83 190.06 582.5 189.912 582.21C189.767 581.92 189.56 581.692 189.29 581.524C189.023 581.357 188.707 581.273 188.344 581.273C187.943 581.273 187.597 581.372 187.304 581.571C187.014 581.767 186.791 582.023 186.635 582.338C186.479 582.653 186.401 582.991 186.401 583.352V583.932C186.401 584.426 186.486 584.845 186.656 585.189C186.83 585.53 187.07 585.79 187.376 585.969C187.683 586.145 188.04 586.233 188.446 586.233C188.71 586.233 188.949 586.196 189.162 586.122C189.378 586.045 189.564 585.932 189.72 585.781C189.876 585.628 189.997 585.437 190.082 585.21L191.054 585.483C190.952 585.812 190.78 586.102 190.538 586.352C190.297 586.599 189.999 586.793 189.643 586.932C189.288 587.068 188.889 587.136 188.446 587.136ZM197.322 581.92L196.419 582.176C196.362 582.026 196.278 581.879 196.168 581.737C196.06 581.592 195.912 581.473 195.724 581.379C195.537 581.286 195.297 581.239 195.004 581.239C194.604 581.239 194.27 581.331 194.003 581.516C193.739 581.697 193.607 581.929 193.607 582.21C193.607 582.46 193.697 582.658 193.879 582.803C194.061 582.947 194.345 583.068 194.732 583.165L195.703 583.403C196.288 583.545 196.724 583.763 197.011 584.055C197.298 584.345 197.442 584.719 197.442 585.176C197.442 585.551 197.334 585.886 197.118 586.182C196.905 586.477 196.607 586.71 196.223 586.881C195.839 587.051 195.393 587.136 194.885 587.136C194.217 587.136 193.665 586.991 193.227 586.702C192.79 586.412 192.513 585.989 192.396 585.432L193.351 585.193C193.442 585.545 193.614 585.81 193.866 585.986C194.122 586.162 194.456 586.25 194.868 586.25C195.337 586.25 195.709 586.151 195.984 585.952C196.263 585.75 196.402 585.509 196.402 585.227C196.402 585 196.322 584.81 196.163 584.656C196.004 584.5 195.76 584.384 195.43 584.307L194.339 584.051C193.74 583.909 193.3 583.689 193.018 583.391C192.74 583.089 192.601 582.713 192.601 582.261C192.601 581.892 192.705 581.565 192.912 581.281C193.122 580.997 193.408 580.774 193.768 580.612C194.132 580.45 194.544 580.369 195.004 580.369C195.652 580.369 196.161 580.511 196.53 580.795C196.902 581.08 197.166 581.455 197.322 581.92ZM198.956 587V580.455H199.961V587H198.956ZM199.467 579.364C199.271 579.364 199.102 579.297 198.96 579.163C198.821 579.03 198.751 578.869 198.751 578.682C198.751 578.494 198.821 578.334 198.96 578.2C199.102 578.067 199.271 578 199.467 578C199.663 578 199.831 578.067 199.97 578.2C200.112 578.334 200.183 578.494 200.183 578.682C200.183 578.869 200.112 579.03 199.97 579.163C199.831 579.297 199.663 579.364 199.467 579.364ZM204.462 587.136C203.871 587.136 203.353 586.996 202.907 586.714C202.464 586.433 202.117 586.04 201.867 585.534C201.62 585.028 201.496 584.437 201.496 583.761C201.496 583.08 201.62 582.484 201.867 581.976C202.117 581.467 202.464 581.072 202.907 580.791C203.353 580.51 203.871 580.369 204.462 580.369C205.053 580.369 205.57 580.51 206.013 580.791C206.46 581.072 206.806 581.467 207.053 581.976C207.303 582.484 207.428 583.08 207.428 583.761C207.428 584.437 207.303 585.028 207.053 585.534C206.806 586.04 206.46 586.433 206.013 586.714C205.57 586.996 205.053 587.136 204.462 587.136ZM204.462 586.233C204.911 586.233 205.281 586.118 205.57 585.888C205.86 585.658 206.075 585.355 206.214 584.98C206.353 584.605 206.423 584.199 206.423 583.761C206.423 583.324 206.353 582.916 206.214 582.538C206.075 582.161 205.86 581.855 205.57 581.622C205.281 581.389 204.911 581.273 204.462 581.273C204.013 581.273 203.644 581.389 203.354 581.622C203.065 581.855 202.85 582.161 202.711 582.538C202.572 582.916 202.502 583.324 202.502 583.761C202.502 584.199 202.572 584.605 202.711 584.98C202.85 585.355 203.065 585.658 203.354 585.888C203.644 586.118 204.013 586.233 204.462 586.233ZM204.002 579.568L205.042 577.591H206.218L204.888 579.568H204.002ZM209.969 583.062V587H208.963V580.455H209.935V581.477H210.02C210.174 581.145 210.407 580.878 210.719 580.676C211.032 580.472 211.435 580.369 211.929 580.369C212.373 580.369 212.76 580.46 213.093 580.642C213.425 580.821 213.684 581.094 213.868 581.46C214.053 581.824 214.145 582.284 214.145 582.841V587H213.14V582.909C213.14 582.395 213.006 581.994 212.739 581.707C212.472 581.418 212.105 581.273 211.64 581.273C211.319 581.273 211.032 581.342 210.779 581.482C210.529 581.621 210.331 581.824 210.186 582.091C210.042 582.358 209.969 582.682 209.969 583.062Z" fill="#007BA4"/>
</g>
</g>
<defs>
<linearGradient id="paint0_linear_104_13" x1="258.998" y1="339.5" x2="101" y2="339.5" gradientUnits="userSpaceOnUse">
<stop stop-color="#79D67B"/>
<stop offset="0.0607" stop-color="#86DD89" stop-opacity="0.9067"/>
<stop offset="0.1944" stop-color="#9CEAA2" stop-opacity="0.7014"/>
<stop offset="0.3338" stop-color="#ACF4B4" stop-opacity="0.4872"/>
<stop offset="0.4814" stop-color="#B6F9BF" stop-opacity="0.2604"/>
<stop offset="0.6508" stop-color="#B9FBC2" stop-opacity="0"/>
</linearGradient>
<clipPath id="clip0_104_13">
<rect width="360" height="800" fill="white"/>
</clipPath>
<clipPath id="clip1_104_13">
<rect width="360" height="800" fill="white"/>
</clipPath>
<clipPath id="clip2_104_13">
<rect width="237" height="46" fill="white" transform="translate(61 488)"/>
</clipPath>
<clipPath id="clip3_104_13">
<rect width="237" height="46" fill="white" transform="translate(61 430)"/>
</clipPath>
<clipPath id="clip4_104_13">
<rect width="177" height="143" fill="white" transform="translate(92 127)"/>
</clipPath>
<clipPath id="clip5_104_13">
<rect width="158" height="51" fill="white" transform="translate(101 314)"/>
</clipPath>
<clipPath id="clip6_104_13">
<rect width="164.44" height="31.84" fill="white" transform="translate(98 610)"/>
</clipPath>
<clipPath id="clip7_104_13">
<rect width="164.44" height="31.84" fill="white" transform="translate(98 566)"/>
</clipPath>
</defs>
</svg>
